<svg width="40" height="40" viewBox="0 0 40 40" xmlns="http://www.w3.org/2000/svg">
  <!-- Background circle with gradient -->
  <defs>
    <linearGradient id="bgGradient" x1="0%" y1="0%" x2="100%" y2="100%">
      <stop offset="0%" style="stop-color:#3b82f6;stop-opacity:1" />
      <stop offset="50%" style="stop-color:#8b5cf6;stop-opacity:1" />
      <stop offset="100%" style="stop-color:#ec4899;stop-opacity:1" />
    </linearGradient>
  </defs>
  
  <circle cx="20" cy="20" r="18" fill="url(#bgGradient)"/>
  
  <!-- Fanned card set -->
  <!-- Card 1 (leftmost) -->
  <rect x="8" y="12" width="10" height="14" rx="1.5" fill="white" transform="rotate(-25 13 19)"/>
  <circle cx="13" cy="17" r="1" fill="#3b82f6"/>
  <circle cx="13" cy="20" r="1" fill="#3b82f6"/>
  <circle cx="13" cy="23" r="1" fill="#3b82f6"/>
  
  <!-- Card 2 (center-left) -->
  <rect x="12" y="10" width="10" height="14" rx="1.5" fill="white" transform="rotate(-12 17 17)"/>
  <rect x="16" y="14" width="2" height="1" rx="0.5" fill="#ef4444"/>
  <rect x="16" y="17" width="2" height="1" rx="0.5" fill="#ef4444"/>
  <rect x="16" y="20" width="2" height="1" rx="0.5" fill="#ef4444"/>
  
  <!-- Card 3 (center) -->
  <rect x="15" y="8" width="10" height="14" rx="1.5" fill="white" transform="rotate(0 20 15)"/>
  <path d="M20 12 L18 14 L20 16 L22 14 Z" fill="#10b981"/>
  <path d="M20 14 L18 16 L20 18 L22 16 Z" fill="#10b981"/>
  <path d="M20 16 L18 18 L20 20 L22 18 Z" fill="#10b981"/>
  
  <!-- Card 4 (center-right) -->
  <rect x="18" y="10" width="10" height="14" rx="1.5" fill="white" transform="rotate(12 23 17)"/>
  <path d="M23 14 L21 16 L23 18 L25 16 Z" fill="#f59e0b"/>
  <path d="M23 16 L21 18 L23 20 L25 18 Z" fill="#f59e0b"/>
  <path d="M23 18 L21 20 L23 22 L25 20 Z" fill="#f59e0b"/>
  
  <!-- Card 5 (rightmost) -->
  <rect x="22" y="12" width="10" height="14" rx="1.5" fill="white" transform="rotate(25 27 19)"/>
  <circle cx="27" cy="17" r="1" fill="#8b5cf6"/>
  <circle cx="27" cy="20" r="1" fill="#8b5cf6"/>
  <circle cx="27" cy="23" r="1" fill="#8b5cf6"/>
</svg>
